<svg width="80" height="80" viewBox="0 0 80 80" fill="none" xmlns="http://www.w3.org/2000/svg">
<rect width="80" height="80" rx="40" fill="#E4E7EC"/>
<g clip-path="url(#clip0_234_211)">
<path d="M55.5625 29.1008H47.3125V24.2017C47.3125 23.5546 46.75 23 45.9062 23C45.8125 23 45.7188 23 45.625 23C45.5312 23 45.4375 23 45.3437 23H34.375H34.2812H34.1875C33.3437 23 32.6875 23.5546 32.6875 24.2017V29.1933H24.4375C23.125 29.1008 22 30.2101 22 31.5966V42.4118C22 43.7059 23.0312 44.7227 24.3437 44.8151V53.5042C24.3437 54.7983 25.375 55.9076 26.5 55.9076H53.5C54.7187 55.9076 55.6562 54.7983 55.6562 53.5042V44.8151C56.9688 44.7227 58 43.7059 58 42.4118V31.5966C58 30.2101 56.875 29.1008 55.5625 29.1008ZM33.8125 24.2109C33.9062 24.2109 34.0937 24.2017 34.1875 24.2017H34.2812H45.3437H45.4375C45.5312 24.2017 45.625 24.2017 45.7187 24.2017C45.9062 24.2017 46 24.2017 46.0938 24.2017V30.1176C46.0938 30.1176 46 30.2101 45.8125 30.2101C45.7187 30.2101 45.625 30.2101 45.5312 30.1176V25.6807C45.5312 25.3109 45.25 25.0336 44.875 25.0336H35.0312C34.6562 25.0336 34.375 25.3109 34.375 25.6807V30.2101C34.375 30.2101 34.2812 30.3025 34.0937 30.3025C34 30.3025 33.9062 30.3025 33.8125 30.2101V24.2941V24.2109ZM44.4062 26.2353V29.1008H35.5937V26.2353H44.4062ZM54.4375 53.5966C54.4375 54.2437 54.0625 54.7983 53.5937 54.7983H26.5C25.9375 54.7983 25.5625 54.2437 25.5625 53.5966V44.9076H35.125V46.0168C35.125 47.3109 36.25 48.4202 37.5625 48.4202H41.9687C43.2812 48.4202 44.4062 47.3109 44.4062 46.0168V44.9076H54.4375V53.5966ZM36.3437 46.0168V42.5966C36.3437 41.9496 36.9062 41.395 37.5625 41.395H41.9687C42.625 41.395 43.1875 41.9496 43.1875 42.5966V46.0168C43.1875 46.6639 42.625 47.2185 41.9687 47.2185H37.5625C36.9062 47.2185 36.3437 46.6639 36.3437 46.0168ZM56.9687 42.4118C56.9687 43.0588 56.2187 43.6134 55.5625 43.6134H44.4062V42.5042C44.4062 41.2101 43.2812 40.1008 41.9687 40.1008H37.5625C36.25 40.1008 35.125 41.2101 35.125 42.5042V43.6134H24.4375C23.7812 43.6134 23.2187 43.0588 23.2187 42.4118V31.5966C23.2187 30.9496 23.7812 30.395 24.4375 30.395H32.6875C32.6875 31.042 33.3437 31.5042 34.1875 31.5042C35.0312 31.5042 35.5937 31.042 35.6875 30.395H44.5C44.5 31.042 45.1562 31.5042 46 31.5042C46.8437 31.5042 47.4062 31.042 47.5 30.395H55.75C56.4062 30.395 56.9687 30.9496 56.9687 31.5966V42.4118Z" fill="#28282A"/>
<path d="M39.8125 46.3866C41.0312 46.3866 41.9687 45.4623 41.9687 44.2606C41.9687 43.0589 41.0312 42.1345 39.8125 42.1345C38.5937 42.1345 37.6562 43.0589 37.6562 44.2606C37.6562 45.4623 38.5937 46.3866 39.8125 46.3866ZM39.8125 42.7816C40.6562 42.7816 41.3125 43.4286 41.3125 44.2606C41.3125 45.0925 40.6562 45.7396 39.8125 45.7396C38.9687 45.7396 38.3125 45.0925 38.3125 44.2606C38.2187 43.4286 38.9687 42.7816 39.8125 42.7816Z" fill="#28282A"/>
</g>
<defs>
<clipPath id="clip0_234_211">
<rect width="36" height="33" fill="white" transform="translate(22 23)"/>
</clipPath>
</defs>
</svg>
