<svg width="80" height="80" viewBox="0 0 80 80" fill="none" xmlns="http://www.w3.org/2000/svg">
<rect width="80" height="80" rx="40" fill="#E4E7EC"/>
<g clip-path="url(#clip0_234_201)">
<path d="M46.8906 57.8711C47.0547 57.7617 47.1839 57.6593 47.2988 57.5457L54.5402 50.7319C54.6552 50.6183 54.7695 50.5039 54.832 50.3711C54.8945 50.2383 54.8851 50.0505 54.8851 49.8233V24.8391C54.8851 23.2492 53.6207 22 52.0115 22H27.8736C26.2644 22 25 23.2492 25 24.8391V55.1609C25 56.7508 26.2644 58 27.8736 58H46.3793C46.6092 58 46.75 57.957 46.8906 57.8711ZM47.5287 55.5016V52.8896C47.5287 51.8675 48.4483 50.959 49.4828 50.959H52.3563L47.5287 55.5016ZM45.5747 56.4101H27.8736C27.1839 56.4101 26.6092 55.8423 26.6092 55.1609V24.8391C26.6092 24.1577 27.1839 23.5899 27.8736 23.5899H52.1264C52.8161 23.5899 53.3908 24.1577 53.3908 24.8391V49.142H49.7126C47.5287 49.142 45.6897 50.959 45.6897 53.1167V56.4101H45.5747Z" fill="#28282A"/>
<path d="M31.2069 32.448H48.7931C49.2529 32.448 49.5977 32.1073 49.5977 31.6531V30.2903C49.5977 29.8361 49.2529 29.4954 48.7931 29.4954H31.2069C30.7472 29.4954 30.4023 29.8361 30.4023 30.2903V31.6531C30.4023 32.1073 30.7472 32.448 31.2069 32.448ZM31.3219 30.4039H48.5633V31.5395H31.3219V30.4039Z" fill="#28282A"/>
<path d="M31.2069 37.4449H48.7931C49.2529 37.4449 49.5977 37.1042 49.5977 36.6499V35.2871C49.5977 34.8329 49.2529 34.4922 48.7931 34.4922H31.2069C30.7472 34.4922 30.4023 34.8329 30.4023 35.2871V36.6499C30.4023 37.1042 30.7472 37.4449 31.2069 37.4449ZM31.3219 35.4007H48.5633V36.5364H31.3219V35.4007Z" fill="#28282A"/>
<path d="M49.5977 41.5332V40.1704C49.5977 39.7162 49.2529 39.3755 48.7931 39.3755H31.2069C30.7472 39.3755 30.4023 39.7162 30.4023 40.1704V41.5332C30.4023 41.9875 30.7472 42.3282 31.2069 42.3282H48.7931C49.138 42.3282 49.5977 41.9875 49.5977 41.5332ZM48.5633 41.4197H31.3219V40.284H48.5633V41.4197Z" fill="#28282A"/>
</g>
<defs>
<clipPath id="clip0_234_201">
<rect width="30" height="36" fill="white" transform="translate(25 22)"/>
</clipPath>
</defs>
</svg>
