<svg width="200" height="200" viewBox="0 0 200 200" fill="none" xmlns="http://www.w3.org/2000/svg">
<path d="M0 100C0 44.7715 44.7715 0 100 0C155.228 0 200 44.7715 200 100C200 155.228 155.228 200 100 200C44.7715 200 0 155.228 0 100Z" fill="#E4E7EC"/>
<path fill-rule="evenodd" clip-rule="evenodd" d="M5 100C5 152.467 47.533 195 100 195C152.467 195 195 152.467 195 100C195 47.533 152.467 5 100 5C47.533 5 5 47.533 5 100ZM100 0C44.7715 0 0 44.7715 0 100C0 155.228 44.7715 200 100 200C155.228 200 200 155.228 200 100C200 44.7715 155.228 0 100 0Z" fill="white"/>
<path d="M42.5 100C42.5 68.2436 68.2436 42.5 100 42.5C131.756 42.5 157.5 68.2436 157.5 100C157.5 131.756 131.756 157.5 100 157.5C68.2436 157.5 42.5 131.756 42.5 100Z" fill="#B9BEC7"/>
<path fill-rule="evenodd" clip-rule="evenodd" d="M45 100C45 130.376 69.6243 155 100 155C130.376 155 155 130.376 155 100C155 69.6243 130.376 45 100 45C69.6243 45 45 69.6243 45 100ZM100 42.5C68.2436 42.5 42.5 68.2436 42.5 100C42.5 131.756 68.2436 157.5 100 157.5C131.756 157.5 157.5 131.756 157.5 100C157.5 68.2436 131.756 42.5 100 42.5Z" fill="white"/>
<path d="M62.5 72.15H76.1C77.5667 72.15 78.7667 72.4833 79.7 73.15C80.6333 73.8167 81.3 74.7 81.7 75.8L95.8 114.8C96.4333 116.5 97.0667 118.35 97.7 120.35C98.3667 122.35 98.9833 124.45 99.55 126.65C100.017 124.45 100.55 122.35 101.15 120.35C101.783 118.35 102.4 116.5 103 114.8L117 75.8C117.333 74.8667 117.983 74.0333 118.95 73.3C119.917 72.5333 121.1 72.15 122.5 72.15H136.2L107 145H91.7L62.5 72.15Z" fill="#28282A"/>
<path d="M157.5 65C157.5 77.4264 147.426 87.5 135 87.5C122.574 87.5 112.5 77.4264 112.5 65C112.5 52.5736 122.574 42.5 135 42.5C147.426 42.5 157.5 52.5736 157.5 65Z" fill="#EF6241"/>
<path fill-rule="evenodd" clip-rule="evenodd" d="M135 85C146.046 85 155 76.0457 155 65C155 53.9543 146.046 45 135 45C123.954 45 115 53.9543 115 65C115 76.0457 123.954 85 135 85ZM135 87.5C147.426 87.5 157.5 77.4264 157.5 65C157.5 52.5736 147.426 42.5 135 42.5C122.574 42.5 112.5 52.5736 112.5 65C112.5 77.4264 122.574 87.5 135 87.5Z" fill="white"/>
</svg>
