<svg width="80" height="80" viewBox="0 0 80 80" fill="none" xmlns="http://www.w3.org/2000/svg">
<rect width="80" height="80" rx="40" fill="#E4E7EC"/>
<path d="M20.0724 49.7935C20.1891 49.9334 20.3944 49.9261 20.6566 49.9261H31.8037C31.6726 50.6946 31.5415 51.4631 31.5415 52.2316C31.5415 52.3596 31.5911 52.5673 31.7753 52.7656C31.9064 52.8937 32.066 53 32.3283 53H47.672C48.0654 53 48.3277 52.7439 48.3277 52.3596C48.3277 52.2316 48.3277 51.335 48.1966 50.0542H59.3437C59.7371 50.0542 59.9994 49.7981 59.9994 49.4138C59.9994 49.1577 60.1305 43.7784 56.5897 40.5764C56.3274 40.3202 55.934 40.3202 55.6717 40.5764C55.6717 40.5764 51.6063 43.6503 47.8031 40.5764C47.5408 40.3202 47.1474 40.3202 46.8851 40.5764C46.754 40.7045 45.7048 41.601 44.6557 43.5222C44.3934 43.3941 44.1949 43.4805 44 43.6503C43.8689 43.7784 39.8034 46.7242 36.1314 43.6503C36.0003 43.5222 35.6972 43.4788 35.4757 43.5222C34.9512 42.4976 34.2955 41.4729 33.3775 40.7045C33.1152 40.4483 32.7217 40.4483 32.4595 40.7045C32.4595 40.7045 28.394 43.7784 24.5909 40.7045C24.3286 40.4483 23.9352 40.4483 23.6729 40.7045C23.5418 40.8326 20.1321 43.7784 20.0009 49.5419C20.0009 49.5419 19.9864 49.6691 20.0724 49.7935ZM47.2786 41.7291C50.9505 44.1626 54.6225 42.4976 55.934 41.7291C58.0322 43.9064 58.4257 47.1084 58.4257 48.5173H47.672C47.2786 47.1084 46.754 45.5715 45.5737 44.2907C46.0983 43.0099 46.754 42.1133 47.2786 41.7291ZM35.6069 44.6749C39.2789 47.1084 42.9509 45.4434 44.2623 44.6749C46.3606 46.8523 46.754 50.0542 46.754 51.4631H32.8529C33.1152 47.8769 34.82 45.5715 35.6069 44.6749ZM23.9352 41.7291C27.6072 44.1626 31.2792 42.4976 32.5906 41.7291C33.2463 42.4976 33.7709 43.3941 34.1643 44.2907C33.5086 45.0592 32.4595 46.5961 31.9349 48.5173H21.3123C21.5746 44.803 23.2795 42.6257 23.9352 41.7291Z" fill="#28282A"/>
<path d="M28.2629 39.8079C29.9678 39.8079 31.6726 39.1675 32.8529 37.8867C32.9841 37.7586 33.2464 37.5025 33.3775 37.3744C33.9021 40.4483 36.5249 42.7537 39.8035 42.7537C41.5083 42.7537 43.2132 42.1133 44.3935 40.8325C45.4426 39.8079 46.0983 38.5271 46.2295 37.1182C47.4098 38.6552 49.2458 39.6798 51.4752 39.6798C53.18 39.6798 54.8849 39.0394 56.0652 37.7586C57.2455 36.734 57.9012 35.069 57.9012 33.4039C57.9012 29.9458 55.016 27 51.344 27C49.6392 27 47.9343 27.6404 46.7541 28.9212C45.7049 29.9458 45.0492 31.2266 44.9181 32.6355C43.7378 31.0985 41.9018 30.0739 39.6723 30.0739C37.9675 30.0739 36.2626 30.7143 35.0824 31.9951C34.9512 32.1232 34.6889 32.3793 34.5578 32.5074C34.1644 29.3054 31.4104 27 28.2629 27C26.4269 27 24.8532 27.6404 23.5418 28.9212C22.3615 30.0739 21.7058 31.7389 21.7058 33.4039C21.7058 36.8621 24.5909 39.8079 28.2629 39.8079ZM47.8032 29.8177C48.7212 28.9212 50.0326 28.4089 51.4752 28.4089C54.2292 28.4089 56.5897 30.5862 56.5897 33.4039C56.5897 34.6847 56.0652 35.9655 55.016 36.9901C54.098 37.8867 52.7866 38.5271 51.344 38.5271C48.4589 38.5271 46.2295 36.2217 46.2295 33.532C46.2295 31.9951 46.754 30.7143 47.8032 29.8177ZM36.1315 32.8916C37.0495 31.9951 38.3609 31.3547 39.8035 31.3547C42.6886 31.3547 44.9181 33.6601 44.9181 36.3498C44.9181 37.6305 44.3935 38.9113 43.3443 39.936C42.4263 40.8325 41.1149 41.4729 39.6723 41.4729C36.7872 41.4729 34.5578 39.1675 34.5578 36.4778C34.5578 35.069 35.0824 33.7882 36.1315 32.8916ZM24.5909 29.8177C25.5089 28.9212 26.8204 28.2808 28.2629 28.2808C31.1481 28.2808 33.3775 30.5862 33.3775 33.2759C33.3775 34.5567 32.8529 35.8374 31.8038 36.8621C30.8858 37.8867 29.5744 38.399 28.2629 38.399C25.3778 38.399 23.0172 36.2217 23.0172 33.4039C23.0172 31.9951 23.5418 30.7143 24.5909 29.8177Z" fill="#28282A"/>
</svg>
