<svg width="80" height="80" viewBox="0 0 80 80" fill="none" xmlns="http://www.w3.org/2000/svg">
<rect width="80" height="80" rx="40" fill="#E4E7EC"/>
<g clip-path="url(#clip0_234_220)">
<path d="M40.1895 41.8621C39.9999 41.8621 39.8104 41.8621 39.6208 41.9586C39.4312 42.055 39.3364 42.2478 39.3364 42.4407L38.6729 45.7189C38.5781 46.1046 38.8625 46.4902 39.2416 46.5867L40.4739 46.8759C40.5686 47.5508 40.6634 48.2258 40.853 48.9007L39.9051 49.6721C39.7156 49.7685 39.6208 49.9613 39.6208 50.1542C39.6208 50.347 39.6208 50.5398 39.7156 50.7327L41.6113 53.5288C41.7061 53.7216 41.8957 53.8181 42.0852 53.8181C42.2748 53.8181 42.4644 53.8181 42.654 53.7216L43.6966 52.9503C44.2653 53.4324 44.834 53.8181 45.4028 54.1073L45.1184 55.3608C45.0236 55.7464 45.308 56.1321 45.6871 56.2285L48.9099 56.9035H49.0047C49.3838 56.9035 49.6682 56.6142 49.763 56.3249L50.0473 55.0715C50.7108 54.9751 51.3743 54.8787 52.0378 54.6858L52.7961 55.7464C52.8909 55.9393 53.0805 56.0357 53.2701 56.0357C53.4596 56.0357 53.6492 56.0357 53.8388 55.9393L56.5876 54.0109C56.9668 53.8181 56.9668 53.336 56.7772 52.9503L56.1137 51.8897C56.5876 51.3112 56.9668 50.7327 57.2511 50.1542L58.4833 50.4434C58.8625 50.5398 59.2416 50.2506 59.3364 49.8649L59.9999 46.5867C59.9999 46.3938 59.9999 46.201 59.9051 46.0081C59.8104 45.8153 59.6208 45.7189 59.4312 45.7189L58.199 45.4296C58.1042 44.7547 58.0094 44.0798 57.8198 43.4048L58.8625 42.6335C59.2416 42.4406 59.2416 41.9586 59.0521 41.5729L57.1563 38.7767C56.9668 38.4875 56.872 38.3911 56.5876 38.3911C56.398 38.3911 56.2085 38.3911 56.0189 38.4875L54.9762 39.2588C54.4075 38.7767 53.8388 38.3911 53.2701 38.1018L53.5544 36.8484C53.6492 36.4627 53.3649 36.077 52.9857 35.9806L49.763 35.3057C49.5734 35.3057 49.3838 35.3057 49.1942 35.4021C49.0047 35.4985 48.9099 35.6913 48.9099 35.8842L48.6255 37.1376C47.962 37.234 47.2985 37.3305 46.635 37.5233L45.7819 36.4627C45.6871 36.2699 45.4976 36.1734 45.308 36.1734C45.1184 36.1734 44.9288 36.1734 44.7393 36.2699L41.9904 38.1982C41.8009 38.2946 41.7061 38.4875 41.7061 38.6803C41.7061 38.8732 41.7061 39.066 41.8009 39.2588L42.5592 40.3194C42.0852 40.898 41.7061 41.4765 41.4217 42.055L40.1895 41.8621ZM42.5592 43.212C42.9383 42.3442 43.4122 41.5729 44.0758 40.898C44.3601 40.6087 44.3601 40.223 44.1705 39.9338L43.507 38.9696L45.0236 37.909L45.6871 38.8732C45.8767 39.1624 46.2558 39.2588 46.5402 39.1624C47.3933 38.7767 48.2464 38.5839 49.1942 38.5839C49.5734 38.5839 49.8577 38.2946 49.9525 38.0054L50.1421 36.8484L51.9431 37.234L51.7535 38.3911C51.6587 38.7767 51.8483 39.066 52.2274 39.2588C53.0805 39.6445 53.8388 40.1266 54.5023 40.8015C54.7867 41.0908 55.1658 41.0908 55.4502 40.898L56.398 40.223L57.4407 41.7657L56.4928 42.4407C56.2085 42.6335 56.1137 43.0192 56.2085 43.3084C56.5876 44.1762 56.7772 45.044 56.7772 46.0081C56.7772 46.3938 57.0615 46.6831 57.3459 46.7795L58.4833 46.9723L58.1042 48.8043L56.9668 48.515C56.5876 48.4186 56.3032 48.6115 56.1137 48.9971C55.7345 49.8649 55.2606 50.6362 54.5971 51.3112C54.3127 51.6004 54.3127 51.9861 54.5023 52.2754L55.1658 53.2396L53.6492 54.3002L52.9857 53.336C52.7961 53.0467 52.417 52.9503 52.1326 53.0467C51.2795 53.4324 50.4265 53.6252 49.4786 53.6252C49.0995 53.6252 48.8151 53.9145 48.7203 54.2037L48.5307 55.3608L46.7298 54.9751L46.9194 53.8181C47.0141 53.4324 46.8246 53.1431 46.4454 52.9503C45.5923 52.5646 44.834 52.0825 44.1705 51.4076C43.8862 51.1183 43.507 51.1183 43.2227 51.3112L42.2748 51.9861L41.2322 50.4434L42.18 49.7685C42.4644 49.5756 42.5592 49.19 42.4644 48.9007C42.0852 48.0329 41.8957 47.1652 41.8957 46.201C41.8957 45.8153 41.6113 45.526 41.3269 45.4296L40.1895 45.2368L40.5686 43.4048L41.7061 43.5977C42.0852 43.6941 42.3696 43.5013 42.5592 43.212Z" fill="#28282A"/>
<path d="M48.3413 51.4076C48.7204 51.5041 49.0048 51.5041 49.3839 51.5041C51.8484 51.5041 54.1233 49.6721 54.5972 47.0688C55.1659 44.1762 53.2702 41.2837 50.3318 40.7052C48.91 40.4159 47.4882 40.7052 46.3508 41.5729C45.2133 42.3443 44.3602 43.5977 44.0759 45.044C43.7915 46.4903 44.0759 47.9366 44.929 49.0936C45.6872 50.347 46.9195 51.1184 48.3413 51.4076ZM45.5925 45.3333C45.782 44.2726 46.3508 43.4049 47.2038 42.8264C47.8673 42.3443 48.6256 42.1514 49.3839 42.1514C49.6683 42.1514 49.8579 42.1514 50.1422 42.2479C52.2275 42.6335 53.5545 44.6583 53.1754 46.7795C52.9858 47.8401 52.4171 48.7079 51.564 49.2864C50.7109 49.8649 49.6683 50.0578 48.7204 49.8649C47.6778 49.6721 46.8247 49.0936 46.256 48.2258C45.5925 47.4545 45.4029 46.3939 45.5925 45.3333Z" fill="#28282A"/>
<path d="M20.4739 36.0771C20.5687 36.4628 20.9479 36.7521 21.327 36.6556L22.5592 36.4628C22.8436 37.1377 23.2227 37.7163 23.6019 38.2948L22.8436 39.3554C22.7488 39.5482 22.654 39.741 22.7488 39.9339C22.7488 40.1267 22.8436 40.3196 23.0332 40.416L25.6872 42.4408C25.9716 42.73 26.4455 42.6336 26.7299 42.2479L27.4882 41.2837C28.1517 41.573 28.8152 41.6694 29.4787 41.7658L29.6682 43.0193C29.6682 43.2121 29.763 43.405 29.9526 43.5014C30.0474 43.5978 30.237 43.6942 30.4265 43.6942H30.5213L33.8389 43.2121C34.218 43.1157 34.5024 42.73 34.5024 42.3444L34.218 41.0909C34.8815 40.8017 35.4502 40.416 36.019 40.0303L37.0616 40.8017C37.346 41.0909 37.8199 40.9945 38.1043 40.6088L40.0948 37.9091C40.3791 37.6198 40.2844 37.1377 39.9052 36.8485L38.9573 36.0771C39.2417 35.4022 39.3365 34.7273 39.4313 34.0523L40.6635 33.8595C40.8531 33.8595 41.0427 33.7631 41.1374 33.5702C41.2322 33.3774 41.327 33.1846 41.2322 32.9917L40.8531 29.6171C40.7583 29.2314 40.3791 28.9421 40 28.9421L38.7678 29.135C38.4834 28.4601 38.1043 27.8815 37.7251 27.303L38.4834 26.2424C38.5782 26.0496 38.673 25.8567 38.5782 25.6639C38.5782 25.4711 38.4834 25.2782 38.2938 25.1818L35.6398 23.157C35.4502 23.0606 35.2607 22.9642 35.0711 23.0606C34.8815 23.0606 34.6919 23.157 34.5972 23.3499L33.8389 24.4105C33.1754 24.1212 32.5118 24.0248 31.8483 23.9284L31.6588 22.6749C31.564 22.2893 31.1848 22 30.8057 22L27.4882 22.4821C27.2986 22.4821 27.109 22.5785 27.0142 22.7713C26.9194 22.9642 26.9194 23.157 26.9194 23.3499L27.109 24.6033C26.4455 24.8926 25.8768 25.2782 25.3081 25.6639L24.2654 24.8926C24.0758 24.7961 23.8863 24.7961 23.6967 24.7961C23.5071 24.7961 23.3175 24.8926 23.2227 25.0854L21.2322 27.7851C21.1374 27.978 21.0427 28.1708 21.1374 28.3636C21.1374 28.5565 21.2322 28.7493 21.4218 28.8457L22.4645 29.6171C22.1801 30.292 21.9905 30.9669 21.8957 31.6419L20.6635 31.8347C20.4739 31.8347 20.2844 31.9311 20.1896 32.124C20 32.3168 20 32.5096 20 32.7025L20.4739 36.0771ZM24.8341 27.303C25.1185 27.4959 25.4976 27.4959 25.782 27.303C26.5403 26.6281 27.2986 26.146 28.1517 25.8567C28.436 25.7603 28.7204 25.3747 28.6256 25.0854L28.436 23.832L30.237 23.5427L30.4265 24.6997C30.5213 25.0854 30.8057 25.2782 31.09 25.3747C32.0379 25.4711 32.891 25.6639 33.7441 26.0496C34.0284 26.2424 34.4076 26.146 34.6919 25.8567L35.3555 24.8926L36.872 26.0496L36.2085 27.0138C36.019 27.303 36.019 27.6887 36.2085 27.978C36.7773 28.6529 37.2512 29.5207 37.6303 30.3884C37.7251 30.6777 38.1043 30.9669 38.3886 30.8705L39.5261 30.6777L39.8104 32.5096L38.673 32.6061C38.2938 32.7025 38.1043 32.9917 38.0095 33.281C37.9147 34.2452 37.7251 35.1129 37.346 35.9807C37.1564 36.27 37.2512 36.6556 37.5355 36.9449L38.4834 37.6198L37.346 39.1625L36.3981 38.4876C36.1137 38.2948 35.7346 38.2948 35.4502 38.4876C34.7867 39.0661 33.9337 39.5482 33.0806 39.9339C32.7962 40.0303 32.5118 40.416 32.6066 40.7052L32.7962 41.8623L30.9953 42.1515L30.8057 40.9945C30.7109 40.6088 30.4265 40.416 30.1422 40.3196C29.1943 40.2231 28.3412 40.0303 27.4882 39.6446C27.3934 39.6446 27.2986 39.5482 27.2038 39.5482C27.0142 39.5482 26.7299 39.6446 26.6351 39.8375L25.9716 40.8017L24.455 39.6446L25.1185 38.6804C25.3081 38.3912 25.3081 38.0055 25.1185 37.7163C24.5498 37.0413 24.0758 36.1736 23.6967 35.3058C23.6019 35.0165 23.2227 34.7273 22.9384 34.8237L21.8009 35.0165L21.5166 33.1846L22.654 32.9917C23.0332 32.8953 23.2227 32.6061 23.3175 32.3168C23.4123 31.3526 23.6019 30.4848 23.981 29.6171C24.1706 29.3278 24.0758 28.9421 23.7915 28.7493L22.8436 28.0744L23.981 26.5317L24.8341 27.303Z" fill="#28282A"/>
<path d="M30.7109 38.2947C30.9953 38.2947 31.1849 38.2947 31.4692 38.1983C34.4076 37.8126 36.3982 35.0164 36.019 32.1239C35.6399 29.1349 32.891 27.1101 30.0474 27.4958C27.0143 27.8815 25.0237 30.6776 25.4029 33.6666C25.782 36.2699 28.0569 38.2947 30.7109 38.2947ZM34.5024 32.3167C34.7868 34.4379 33.365 36.4627 31.2797 36.752C29.1944 37.0412 27.2038 35.595 26.9195 33.4737C26.6351 31.3525 28.0569 29.3277 30.1422 29.0385C30.3318 29.0385 30.5214 29.0385 30.7109 29.0385C32.5119 28.9421 34.2181 30.3883 34.5024 32.3167Z" fill="#28282A"/>
</g>
<defs>
<clipPath id="clip0_234_220">
<rect width="40" height="35" fill="white" transform="translate(20 22)"/>
</clipPath>
</defs>
</svg>
