<svg width="80" height="80" viewBox="0 0 80 80" fill="none" xmlns="http://www.w3.org/2000/svg">
<rect width="80" height="80" rx="40" fill="#E4E7EC"/>
<path d="M51.3814 29.5122C52.6467 29.5122 52.9797 30.4692 52.6054 32.7162C52.1772 35.2857 50.9434 43.793 49.9594 49.0887C49.5829 51.1152 48.9042 51.989 47.9164 51.989C47.3734 51.989 46.7374 51.725 46.0069 51.2427C45.0169 50.5887 40.0189 47.2835 38.9337 46.5072C37.9437 45.8 36.5779 44.9487 38.2909 43.2732C38.9007 42.6762 42.8959 38.861 46.0084 35.8917C46.3407 35.5745 46.0624 35.0907 45.6934 35.0907C45.6094 35.0907 45.5202 35.1162 45.4332 35.174C41.2377 37.9565 35.4199 41.8182 34.6797 42.3215C33.9394 42.824 33.2179 43.1465 32.2564 43.1465C31.7652 43.1465 31.2109 43.0625 30.5592 42.875C29.1019 42.4565 27.6792 41.9577 27.1249 41.7672C24.9912 41.0352 25.4974 40.0865 27.5697 39.1745C35.8782 35.5197 46.6294 31.0632 48.1137 30.4467C49.5597 29.846 50.6337 29.5122 51.3814 29.5122ZM51.3814 27.2622C50.3554 27.2622 49.1202 27.593 47.2519 28.3677L47.0277 28.4607C39.0514 31.7727 31.8192 34.8462 26.6637 37.1142C25.8582 37.469 23.4079 38.5467 23.5032 40.8012C23.5437 41.774 24.0792 43.1 26.3952 43.8942L26.5662 43.9527C27.2127 44.1755 28.5589 44.6397 29.9389 45.0365C30.7789 45.278 31.5379 45.395 32.2572 45.395C33.5052 45.395 34.4719 45.0387 35.2279 44.624C35.2242 44.75 35.2272 44.8767 35.2369 45.0042C35.3734 46.7382 36.7144 47.6892 37.5154 48.2577L37.6272 48.3372C38.8099 49.1832 44.1627 52.7195 44.7687 53.1192C45.9094 53.8722 46.9392 54.2375 47.9179 54.2375C49.4569 54.2375 51.4452 53.4155 52.1727 49.499C52.8634 45.7842 53.6614 40.595 54.2442 36.806C54.4924 35.189 54.6964 33.863 54.8262 33.0852C55.0879 31.5147 55.2079 29.7357 54.1152 28.4465C53.6562 27.9065 52.8102 27.2622 51.3814 27.2622Z" fill="#28282A"/>
</svg>
