<svg width="80" height="80" viewBox="0 0 80 80" fill="none" xmlns="http://www.w3.org/2000/svg">
<rect width="80" height="80" rx="40" fill="#E4E7EC"/>
<g clip-path="url(#clip0_234_181)">
<path d="M28.7194 22C27.2086 22 26 23.2238 26 24.7535V55.2465C26 56.7762 27.2086 58 28.7194 58H51.2806C52.7914 58 54 56.7762 54 55.2465V24.7535C54 23.2238 52.7914 22 51.2806 22H28.7194ZM53.0935 24.7535V55.2465C53.0935 56.2663 52.2878 56.9802 51.3813 56.9802H28.7194C27.7122 56.9802 27.0072 56.1643 27.0072 55.2465V24.7535C27.0072 23.7337 27.7122 23.0198 28.7194 23.0198H51.2806C52.2878 23.0198 53.0935 23.7337 53.0935 24.7535Z" fill="#28282A"/>
<path d="M50.6763 26.1814H29.3238C29.0216 26.1814 28.7195 26.4873 28.7195 26.8953V33.5242C28.7195 33.9321 29.0216 34.2381 29.3238 34.2381H50.6763C51.0792 34.2381 51.3814 33.9321 51.3814 33.5242V26.8953C51.3814 26.4873 51.0792 26.1814 50.6763 26.1814ZM50.072 32.8103H30.0288V27.5072H50.072V32.8103Z" fill="#28282A"/>
<path d="M48.8633 46.4758H44.7338C44.331 46.4758 44.0288 46.7818 44.0288 47.1897V54.6345C44.0288 55.0424 44.331 55.3484 44.7338 55.3484H48.8633C49.2662 55.3484 49.5684 55.0424 49.5684 54.6345V47.1897C49.5684 46.7818 49.2662 46.4758 48.8633 46.4758ZM48.259 53.8186H45.4389V47.6996H48.259V53.8186Z" fill="#28282A"/>
<path d="M45.6404 39.643H47.957C48.662 39.643 49.2663 38.9291 49.2663 38.1132C49.2663 37.2974 48.662 36.5835 47.957 36.5835H45.6404C44.9354 36.5835 44.3311 37.2974 44.3311 38.1132C44.3311 38.9291 44.9354 39.643 45.6404 39.643ZM45.6404 37.1954H47.957C48.3598 37.1954 48.5613 37.6033 48.5613 38.1132C48.5613 38.6232 48.2591 39.0311 47.957 39.0311H45.6404C45.2375 39.0311 45.0361 38.6232 45.0361 38.1132C45.0361 37.6033 45.3382 37.1954 45.6404 37.1954Z" fill="#28282A"/>
<path d="M45.6404 44.5382H47.957C48.662 44.5382 49.2663 43.8244 49.2663 43.0085C49.2663 42.1926 48.662 41.4788 47.957 41.4788H45.6404C44.9354 41.4788 44.3311 42.1926 44.3311 43.0085C44.3311 43.9264 44.9354 44.5382 45.6404 44.5382ZM45.6404 42.1926H47.957C48.3598 42.1926 48.5613 42.6006 48.5613 43.1105C48.5613 43.6204 48.2591 44.0283 47.957 44.0283H45.6404C45.2375 44.0283 45.0361 43.6204 45.0361 43.1105C45.0361 42.6006 45.3382 42.1926 45.6404 42.1926Z" fill="#28282A"/>
<path d="M41.4101 36.4817H39.0935C38.3885 36.4817 37.7842 37.1956 37.7842 38.0114C37.7842 38.8273 38.3885 39.5412 39.0935 39.5412H41.4101C42.1151 39.5412 42.7194 38.8273 42.7194 38.0114C42.7194 37.1956 42.1151 36.4817 41.4101 36.4817ZM41.4101 38.9293H39.0935C38.6907 38.9293 38.4892 38.5213 38.4892 38.0114C38.4892 37.5015 38.7914 37.0936 39.0935 37.0936H41.4101C41.813 37.0936 42.0144 37.5015 42.0144 38.0114C42.0144 38.5213 41.7122 38.9293 41.4101 38.9293Z" fill="#28282A"/>
<path d="M41.4101 41.3767H39.0935C38.3885 41.3767 37.7842 42.0906 37.7842 42.9065C37.7842 43.7223 38.3885 44.4362 39.0935 44.4362H41.4101C42.1151 44.4362 42.7194 43.7223 42.7194 42.9065C42.7194 42.0906 42.1151 41.3767 41.4101 41.3767ZM41.4101 43.8243H39.0935C38.6907 43.8243 38.4892 43.4164 38.4892 42.9065C38.4892 42.3965 38.7914 41.9886 39.0935 41.9886H41.4101C41.813 41.9886 42.0144 42.3965 42.0144 42.9065C42.0144 43.4164 41.7122 43.8243 41.4101 43.8243Z" fill="#28282A"/>
<path d="M34.7625 36.4817H32.3452C31.6402 36.4817 31.0359 37.1956 31.0359 38.0114C31.0359 38.8273 31.6402 39.5412 32.3452 39.5412H34.6618C35.3668 39.5412 35.9711 38.8273 35.9711 38.0114C36.0719 37.1956 35.4675 36.4817 34.7625 36.4817ZM34.7625 38.9293H32.3452C31.9424 38.9293 31.7409 38.5213 31.7409 38.0114C31.7409 37.5015 32.0431 37.0936 32.3452 37.0936H34.6618C35.0647 37.0936 35.2661 37.5015 35.2661 38.0114C35.3668 38.5213 35.0647 38.9293 34.7625 38.9293Z" fill="#28282A"/>
<path d="M34.7625 41.3767H32.3452C31.6402 41.3767 31.0359 42.0906 31.0359 42.9065C31.0359 43.7223 31.6402 44.4362 32.3452 44.4362H34.6618C35.3668 44.4362 35.9711 43.7223 35.9711 42.9065C36.0719 42.0906 35.4675 41.3767 34.7625 41.3767ZM34.7625 43.8243H32.3452C31.9424 43.8243 31.7409 43.4164 31.7409 42.9065C31.7409 42.3965 32.0431 41.9886 32.3452 41.9886H34.6618C35.0647 41.9886 35.2661 42.3965 35.2661 42.9065C35.3668 43.4164 35.0647 43.8243 34.7625 43.8243Z" fill="#28282A"/>
<path d="M34.7625 46.272H32.3452C31.6402 46.272 31.0359 46.9859 31.0359 47.8017C31.0359 48.6176 31.6402 49.3315 32.3452 49.3315H34.6618C35.3668 49.3315 35.9711 48.6176 35.9711 47.8017C36.0719 46.9859 35.4675 46.272 34.7625 46.272ZM34.7625 48.7196H32.3452C31.9424 48.7196 31.7409 48.3116 31.7409 47.8017C31.7409 47.2918 32.0431 46.8839 32.3452 46.8839H34.6618C35.0647 46.8839 35.2661 47.2918 35.2661 47.8017C35.3668 48.3116 35.0647 48.7196 34.7625 48.7196Z" fill="#28282A"/>
<path d="M34.7625 51.1672H32.3452C31.6402 51.1672 31.0359 51.8811 31.0359 52.697C31.0359 53.5128 31.6402 54.2267 32.3452 54.2267H34.6618C35.3668 54.2267 35.9711 53.5128 35.9711 52.697C36.0719 51.8811 35.4675 51.1672 34.7625 51.1672ZM34.7625 53.6148H32.3452C31.9424 53.6148 31.7409 53.2069 31.7409 52.697C31.7409 52.1871 32.0431 51.7791 32.3452 51.7791H34.6618C35.0647 51.7791 35.2661 52.1871 35.2661 52.697C35.3668 53.2069 35.0647 53.6148 34.7625 53.6148Z" fill="#28282A"/>
<path d="M41.2087 46.272H38.8921C38.1871 46.272 37.5828 46.9859 37.5828 47.8017C37.5828 48.6176 38.1871 49.3315 38.8921 49.3315H41.2087C41.9137 49.3315 42.518 48.6176 42.518 47.8017C42.518 46.9859 41.9137 46.272 41.2087 46.272ZM41.2087 48.7196H38.8921C38.4892 48.7196 38.2878 48.3116 38.2878 47.8017C38.2878 47.2918 38.59 46.8839 38.8921 46.8839H41.2087C41.6115 46.8839 41.813 47.2918 41.813 47.8017C41.9137 48.3116 41.6115 48.7196 41.2087 48.7196Z" fill="#28282A"/>
<path d="M41.2087 51.1672H38.8921C38.1871 51.1672 37.5828 51.8811 37.5828 52.697C37.5828 53.5128 38.1871 54.2267 38.8921 54.2267H41.2087C41.9137 54.2267 42.518 53.5128 42.518 52.697C42.518 51.8811 41.9137 51.1672 41.2087 51.1672ZM41.2087 53.6148H38.8921C38.4892 53.6148 38.2878 53.2069 38.2878 52.697C38.2878 52.1871 38.59 51.7791 38.8921 51.7791H41.2087C41.6115 51.7791 41.813 52.1871 41.813 52.697C41.9137 53.2069 41.6115 53.6148 41.2087 53.6148Z" fill="#28282A"/>
</g>
<defs>
<clipPath id="clip0_234_181">
<rect width="28" height="36" fill="white" transform="translate(26 22)"/>
</clipPath>
</defs>
</svg>
