<svg width="80" height="80" viewBox="0 0 80 80" fill="none" xmlns="http://www.w3.org/2000/svg">
<rect width="80" height="80" rx="40" fill="#E4E7EC"/>
<g clip-path="url(#clip0_234_171)">
<path d="M27 23.9098V55.99C27 58.1955 28.8425 59.8997 30.9921 59.8997H49.0079C51.2598 59.8997 53 58.0952 53 55.99V23.9098C53 21.7043 51.1575 20 49.0079 20H30.9921C28.8425 20 27 21.8045 27 23.9098ZM30.9921 21.604H49.0079C50.3386 21.604 51.3622 22.7068 51.3622 23.9098V55.99C51.3622 57.2932 50.2362 58.2957 49.0079 58.2957H30.9921C29.6614 58.2957 28.6378 57.193 28.6378 55.99V23.9098C28.6378 22.6065 29.6614 21.604 30.9921 21.604Z" fill="#28282A"/>
<path d="M33.6536 51.1779H46.3465C47.9843 51.1779 49.315 49.8746 49.315 48.2706V26.3157C49.315 24.7117 47.9843 23.4084 46.3465 23.4084H33.6536C32.0158 23.4084 30.6851 24.7117 30.6851 26.3157V48.2706C30.6851 49.8746 32.0158 51.1779 33.6536 51.1779ZM31.9134 26.299C31.9134 25.3967 32.7323 24.6115 33.7559 24.6115H46.4488C47.3701 24.6115 48.189 25.3132 48.189 26.3157V48.2706C48.189 49.1729 47.4725 49.9749 46.4488 49.9749H33.6536C32.7323 49.9749 31.9134 49.2731 31.9134 48.2706V27.3157V26.299Z" fill="#28282A"/>
<path d="M40.0001 52.1804C38.4647 52.1804 37.2363 53.3834 37.2363 54.8872C37.2363 56.3909 38.4647 57.594 40.0001 57.594C41.5355 57.594 42.7639 56.3909 42.7639 54.8872C42.7639 53.3834 41.5355 52.1804 40.0001 52.1804ZM40.0001 56.5914C38.9765 56.5914 38.26 55.7894 38.26 54.8872C38.26 53.8847 39.0788 53.1829 40.0001 53.1829C41.0237 53.1829 41.7403 53.9849 41.7403 54.8872C41.8426 55.7894 41.0237 56.5914 40.0001 56.5914Z" fill="#28282A"/>
</g>
<defs>
<clipPath id="clip0_234_171">
<rect width="26" height="40" fill="white" transform="translate(27 20)"/>
</clipPath>
</defs>
</svg>
